<?xml version="1.0" encoding="UTF-8"?> <svg xmlns="http://www.w3.org/2000/svg" width="169" height="61" viewBox="0 0 169 61" fill="none"><g id="logo"><path fill-rule="evenodd" clip-rule="evenodd" d="M145.878 0H146.836V0.955368C146.836 1.62413 146.89 1.91074 147.013 1.91074C147.095 1.91074 147.643 1.97898 148.204 2.04722C148.765 2.12911 149.695 2.30653 150.256 2.44301C150.817 2.59314 151.775 2.9207 152.377 3.16636C152.979 3.42568 154.005 3.9716 154.675 4.40834C155.332 4.83143 156.331 5.63667 156.905 6.18259C157.48 6.71487 158.246 7.56105 158.616 8.05239C158.985 8.54372 159.587 9.52638 159.956 10.2361C160.326 10.9458 160.777 12.024 160.969 12.6245C161.16 13.225 161.393 14.2759 161.475 14.9447C161.571 15.6134 161.667 16.3095 161.694 16.4869C161.749 16.7599 161.817 16.7872 163.664 16.7872V17.7425H162.706C161.817 17.7425 161.749 17.7698 161.694 18.0565C161.653 18.2202 161.598 18.7252 161.543 19.1756C161.502 19.626 161.311 20.5814 161.133 21.2911C160.941 22.0008 160.476 23.2018 160.107 23.9524C159.737 24.7031 159.012 25.8768 158.506 26.5456C157.986 27.2143 157.056 28.197 156.454 28.7293C155.838 29.2616 154.826 29.9985 154.21 30.367C153.581 30.7492 152.513 31.2542 151.829 31.5135C151.159 31.7592 150.051 32.0867 149.367 32.2232C148.683 32.3597 147.848 32.4825 146.836 32.4825V34.5297H145.878V32.4825H145.289C144.975 32.4825 144.195 32.387 143.552 32.2641C142.909 32.1413 141.869 31.8547 141.226 31.6363C140.583 31.4043 139.748 31.0631 139.379 30.872C138.996 30.6946 138.23 30.2306 137.669 29.8484C137.108 29.4663 136.123 28.6337 135.48 27.9923C134.837 27.3508 134.029 26.3954 133.687 25.8632C133.332 25.3445 132.853 24.5257 132.62 24.048C132.388 23.5839 132.018 22.6695 131.799 22.0144C131.58 21.3456 131.32 20.322 131.238 19.7215C131.156 19.121 131.047 18.4249 130.965 17.7425H129.049V16.7872H130.965L131.033 16.2822C131.06 15.9956 131.129 15.4224 131.184 15.0129C131.225 14.6035 131.416 13.7436 131.608 13.1022C131.786 12.4607 132.128 11.5054 132.36 10.9867C132.579 10.4681 133.099 9.52638 133.509 8.91222C133.92 8.2844 134.7 7.31539 135.233 6.74217C135.781 6.16895 136.574 5.4456 136.985 5.13169C137.395 4.80413 138.107 4.32645 138.558 4.05349C139.01 3.79417 139.844 3.37108 140.405 3.13907C140.966 2.90705 141.896 2.59314 142.457 2.44301C143.018 2.30653 144.017 2.10181 145.878 1.84249V0ZM142.635 4.23091C142.088 4.38104 141.226 4.69495 140.72 4.92697C140.214 5.15899 139.365 5.62302 138.832 5.97787C138.312 6.33272 137.518 6.96054 137.08 7.36998C136.629 7.77942 136 8.46183 135.685 8.87127C135.37 9.28072 134.891 9.99042 134.618 10.4408C134.358 10.8912 133.961 11.7237 133.728 12.2833C133.509 12.8429 133.222 13.7982 133.113 14.3988C132.99 14.9993 132.866 15.7772 132.825 16.1457L132.743 16.7872L142.389 16.8008C142.704 15.7909 142.964 15.2586 143.182 14.9856C143.388 14.699 143.812 14.2759 144.14 14.0439C144.455 13.8255 144.975 13.5799 145.303 13.498L145.878 13.3751V3.68499C145.399 3.71229 144.893 3.76688 144.441 3.83512C143.99 3.90336 143.182 4.08079 142.635 4.23091ZM146.836 13.3751C147.739 13.5799 148.258 13.8255 148.587 14.0439C148.901 14.2759 149.339 14.699 149.545 14.9856C149.75 15.2586 150.01 15.7909 150.119 16.1457L150.324 16.8008L159.97 16.7872C159.861 15.8864 159.765 15.2586 159.683 14.8082C159.614 14.3578 159.423 13.5935 159.259 13.1022C159.108 12.6109 158.766 11.7783 158.506 11.2597C158.232 10.7411 157.795 9.96312 157.507 9.55368C157.234 9.14423 156.673 8.44818 156.262 7.99779C155.865 7.56105 155.072 6.85135 154.497 6.42826C153.936 6.00517 152.924 5.391 152.24 5.06345C151.569 4.73589 150.461 4.32645 149.777 4.16267C149.107 3.9989 148.163 3.82147 147.697 3.76688L146.849 3.67134L146.836 13.3751ZM144.51 16.1457C144.359 16.3777 144.236 16.6234 144.236 16.6916C144.236 16.7462 144.605 16.7872 145.057 16.7872H145.878C145.878 15.5179 145.837 15.1494 145.782 15.1494C145.727 15.1494 145.481 15.2722 145.235 15.4224C144.988 15.5725 144.66 15.9001 144.51 16.1457ZM146.836 16.7872C148.382 16.7872 148.477 16.7599 148.395 16.5552C148.341 16.4187 148.19 16.1457 148.053 15.941C147.916 15.7226 147.615 15.4633 147.383 15.3541C147.164 15.2449 146.945 15.1494 146.904 15.1494C146.877 15.1494 146.836 15.5179 146.836 15.9683V16.7872ZM132.825 18.3977C132.866 18.7525 132.962 19.3803 133.044 19.7898C133.113 20.1992 133.304 20.9362 133.455 21.4275C133.619 21.9189 134.002 22.8333 134.33 23.4748C134.659 24.1162 135.343 25.1535 135.863 25.7813C136.369 26.4091 137.272 27.3235 137.874 27.8012C138.476 28.2789 139.584 28.9749 140.337 29.3434C141.089 29.7119 142.17 30.1487 142.731 30.2988C143.306 30.4489 144.236 30.6264 144.824 30.681L145.891 30.7765L145.878 21.1546C144.879 20.8407 144.318 20.5677 144.003 20.3357C143.675 20.1037 143.237 19.6123 143.018 19.2165C142.786 18.8207 142.58 18.3294 142.539 18.1247L142.457 17.7425H132.757L132.825 18.3977ZM144.482 18.2612C144.646 18.5751 144.975 18.889 145.317 19.0801L145.878 19.394V17.7562H144.222L144.482 18.2612ZM150.119 18.2612C150.037 18.5341 149.818 19.0255 149.627 19.353C149.449 19.6669 149.038 20.1173 148.71 20.3357C148.395 20.5677 147.834 20.8407 147.479 20.9498L146.836 21.1546L146.822 30.7765C148.368 30.6264 149.271 30.4762 149.846 30.3261C150.406 30.176 151.323 29.8484 151.898 29.5891C152.459 29.3298 153.375 28.8248 153.936 28.4563C154.497 28.0742 155.387 27.3372 155.92 26.8185C156.454 26.2863 157.179 25.4264 157.521 24.9078C157.877 24.3755 158.383 23.4884 158.643 22.9288C158.903 22.3693 159.245 21.4412 159.409 20.8816C159.56 20.322 159.737 19.3803 159.792 18.8071L159.902 17.7425H150.256L150.119 18.2612ZM146.836 19.394C147.697 18.9026 148.053 18.5478 148.204 18.2612L148.477 17.7562H146.836V19.394ZM102.643 0.832535H121.524V3.28919H102.643V0.832535ZM10.0177 5.74585L10.4829 6.31908C10.7428 6.63298 14.4643 11.5054 18.7603 17.142C25.4234 25.8632 26.6274 27.3781 26.9147 27.3781C27.2157 27.3781 28.4881 25.7813 43.7706 5.8141L45.563 5.77315C46.9995 5.74585 47.369 5.77315 47.3416 5.92328C47.3142 6.01882 43.2371 11.5463 29.2406 30.2852L24.6572 30.3125L15.5588 18.1247C10.5513 11.4235 6.46042 5.89598 6.46042 5.84139C6.46042 5.7868 7.26765 5.74585 10.0177 5.74585ZM51.8839 5.74585H55.0308V30.3125H51.8839V5.74585ZM77.4689 5.7868C87.1419 5.8141 87.265 5.8141 88.1407 6.11435C88.6332 6.27813 89.3994 6.64663 89.8509 6.93324C90.3024 7.2335 91.0549 7.87496 91.5338 8.37994C92.0947 8.98046 92.5736 9.66286 92.9293 10.4135C93.2303 11.0277 93.5723 11.9148 93.6818 12.3652C93.7912 12.8156 93.887 13.4707 93.887 14.4806L90.8223 14.4124L90.6718 13.6618C90.5897 13.2387 90.3434 12.5426 90.1245 12.0922C89.9056 11.6418 89.4131 10.9594 89.03 10.5909C88.6606 10.2224 87.9491 9.7311 86.5673 9.08964H67.1391L66.3182 9.47179C65.8667 9.67651 65.2647 10.0723 64.9774 10.3589C64.6901 10.6319 64.2933 11.1642 64.1018 11.5463C63.8281 12.0649 63.7324 12.4744 63.6913 13.3206C63.6503 14.2623 63.6776 14.4806 63.965 14.9583C64.1975 15.3678 64.4985 15.6134 65.1553 15.941C65.7983 16.2549 66.373 16.4187 67.2075 16.5142C67.8916 16.5961 72.3793 16.6643 78.0161 16.6643C85.5411 16.6643 87.8944 16.7053 88.6879 16.8554C89.2489 16.951 90.0561 17.1693 90.4666 17.3195C90.877 17.4832 91.5201 17.8381 91.8895 18.1247C92.2589 18.4113 92.7788 18.9436 93.0251 19.3257C93.285 19.6942 93.5587 20.2129 93.6407 20.4858C93.7228 20.7451 93.8186 21.5367 93.846 22.2601C93.9007 23.0517 93.8597 23.8705 93.7502 24.3755C93.6544 24.8259 93.3534 25.6175 93.0935 26.1498C92.7788 26.7776 92.2862 27.4191 91.6432 28.0605C90.9956 28.7065 90.3754 29.1751 89.7825 29.4663C89.2899 29.6983 88.5238 29.9849 88.0723 30.0941C87.3745 30.2715 85.7874 30.3125 77.4005 30.3125C69.0683 30.3125 67.4264 30.2715 66.7697 30.1077C66.3319 29.9849 65.5931 29.6983 65.1279 29.4663C64.567 29.1933 63.8965 28.661 63.1577 27.9377C62.2821 27.0506 61.9401 26.5865 61.4886 25.6721C61.1739 25.0306 60.8318 24.1026 60.7224 23.6249C60.5992 23.1335 60.5035 22.5057 60.5035 21.7141L63.5819 21.7005L63.7734 22.5603C63.8692 23.0244 64.1155 23.7477 64.3207 24.1572C64.5122 24.5666 64.95 25.1808 65.2921 25.522C65.6341 25.8632 66.2498 26.3136 66.6603 26.5183C67.0707 26.723 67.7822 26.955 68.2337 27.0233C68.7125 27.1051 72.5708 27.1597 77.4689 27.1734C82.6406 27.1734 86.1705 27.1188 86.6357 27.0233C87.0461 26.955 87.7302 26.723 88.1407 26.5183C88.5511 26.3136 89.1394 25.9041 89.4541 25.6039C89.7551 25.3036 90.1519 24.744 90.3434 24.3755C90.6171 23.8023 90.6718 23.4884 90.6718 22.5057C90.6718 21.5367 90.6308 21.2501 90.3982 20.9498C90.2477 20.7451 89.974 20.4585 89.7825 20.322C89.5909 20.1719 89.071 19.9672 88.6195 19.858C87.9491 19.6942 86.061 19.6669 78.0846 19.6669C72.3245 19.6669 67.9053 19.5987 67.2075 19.5168C66.5645 19.4486 65.6205 19.2575 65.0869 19.0937C64.567 18.9436 63.8281 18.657 63.4451 18.4659C63.0756 18.2748 62.4189 17.7698 62.0085 17.3604C61.4886 16.8281 61.1465 16.3368 60.9276 15.7772C60.7087 15.2222 60.581 14.5625 60.5445 13.7982C60.5035 13.0066 60.5445 12.3379 60.695 11.7101C60.8181 11.2051 61.1055 10.4272 61.3244 9.97677C61.557 9.52638 62.0906 8.76209 62.5421 8.29805C62.9799 7.83402 63.6366 7.24715 64.006 7.00148C64.3754 6.76946 65.0321 6.44191 65.4699 6.29178C65.8941 6.14165 66.5782 5.95058 66.9749 5.88234C67.3717 5.81409 72.0919 5.77315 77.4689 5.7868ZM114.41 5.74585L114.738 6.18259C114.916 6.42826 118.254 11.3006 122.14 17.0055C126.039 22.7105 129.679 28.0332 131.238 30.3125L127.476 30.2852L123.508 24.6485L101.549 24.5802L97.5127 30.2988L93.7502 30.3125L102.041 18.1929C106.597 11.5327 110.387 6.00517 110.469 5.90963C110.565 5.7868 111.153 5.74585 114.41 5.74585ZM103.615 21.2365C117.31 21.2774 121.305 21.2638 121.333 21.2365C121.36 21.1955 119.445 18.4386 117.078 15.1221C114.629 11.6964 112.658 9.06235 112.522 9.0487C112.357 9.0214 111.085 10.7138 107.952 15.1221L103.615 21.2365Z" fill="#EAE9E8"></path><path d="M0.00262145 47.8639C-0.0110603 40.8488 0.029985 35.0756 0.0983939 35.0347C0.166803 34.9801 38.1748 34.9528 168.932 35.0074L169 60.5976H0.029985L0.00262145 47.8639Z" fill="#30A583"></path><path d="M6.21415 47.7002C6.20047 43.0461 6.21415 39.1564 6.2552 39.0609C6.30992 38.9244 8.07487 38.8971 24.5888 38.9654L25.4097 39.3066C25.8612 39.484 26.4769 39.8252 26.7779 40.0572C27.0789 40.2892 27.5577 40.7806 27.845 41.1627C28.1187 41.5312 28.4744 42.2273 28.6249 42.7186C28.8849 43.5238 28.8985 43.9879 28.8985 47.6046C28.8985 51.235 28.8712 51.6581 28.6249 52.4497C28.4607 52.9137 28.1187 53.5961 27.8314 53.9646C27.5577 54.3468 27.0789 54.8381 26.7779 55.0701C26.4769 55.3021 25.8612 55.6434 24.5888 56.162H6.2552L6.21415 47.7002Z" fill="#EAE9E8"></path><path d="M31.2244 56.2302V38.8971H52.8417V41.7632H34.0976V46.1306H52.2944V48.9967H34.0976V53.3641H52.8417V56.2302H31.2244Z" fill="#EAE9E8"></path><path d="M72.6529 40.4257C72.6392 39.6887 72.6939 39.0336 72.7623 38.9654C72.8307 38.9108 74.1168 38.8971 75.6218 38.9517C77.1268 38.9927 80.5336 39.0336 88.0039 39.0336L87.9354 52.0812L87.4429 53.1048C87.1009 53.7736 86.7178 54.3195 86.2799 54.7153C85.9105 55.0428 85.2949 55.4523 84.9254 55.6297C84.5424 55.8071 83.8446 56.0255 83.352 56.0937C82.7911 56.1893 80.0137 56.2302 69.1914 56.162L68.3705 55.8208C67.8506 55.6161 67.2486 55.2066 66.7287 54.7153C66.2772 54.2922 65.7162 53.5825 65.47 53.1457C65.2374 52.709 64.95 51.9993 64.8269 51.5899C64.7175 51.1804 64.5943 50.4298 64.4712 48.9967H67.3444L67.4128 49.7201C67.4538 50.1022 67.6454 50.771 67.8369 51.1804C68.0284 51.5899 68.3431 52.1085 68.5484 52.3132C68.7536 52.5316 69.164 52.8455 69.465 52.9956C69.9986 53.2959 70.1219 53.2959 82.5995 53.2959L83.3247 52.8864C83.7215 52.6681 84.2003 52.2586 84.3919 51.9993C84.5697 51.74 84.816 51.276 84.9254 50.9757C85.076 50.539 85.117 49.529 85.1307 41.7632H72.6803L72.6529 40.4257Z" fill="#EAE9E8"></path><path d="M93.1619 39.484C93.5997 39.2929 94.2291 39.0882 94.5711 39.02C94.9131 38.9654 98.1694 38.9381 108.458 38.9654L109.279 39.3066C109.731 39.484 110.346 39.8252 110.647 40.0572C110.948 40.2892 111.427 40.7806 111.714 41.1627C111.988 41.5312 112.344 42.2273 112.494 42.7186C112.741 43.5238 112.768 43.9879 112.768 47.5637C112.768 51.1395 112.741 51.6035 112.494 52.4087C112.344 52.9001 111.988 53.5961 111.714 53.9646C111.427 54.3468 110.948 54.8381 110.647 55.0701C110.346 55.3021 109.731 55.6434 108.458 56.162L102.028 56.2029C98.0189 56.2302 95.2689 56.1893 94.7079 56.1074C94.2154 56.0255 93.4766 55.7935 93.0661 55.5888C92.6557 55.384 92.0263 54.9473 91.6843 54.6061C91.3422 54.2512 90.9181 53.7053 90.7402 53.3641C90.5623 53.0229 90.3434 52.4497 90.2477 52.0675C90.1108 51.5762 90.0561 50.3206 90.0561 47.5637C90.0561 44.8067 90.1108 43.5511 90.2477 43.0598C90.3434 42.6913 90.5623 42.1044 90.7402 41.7632C90.9181 41.422 91.3559 40.8624 91.7253 40.5076C92.081 40.1391 92.7377 39.6887 93.1619 39.484Z" fill="#EAE9E8"></path><path d="M117.556 39.6751C117.899 39.4703 118.569 39.2247 119.061 39.1155C119.759 38.9654 121.319 38.9108 126.381 38.9108C129.911 38.8971 133.345 38.9654 134.002 39.0336C134.672 39.1155 135.657 39.3066 136.191 39.484C136.738 39.6614 137.45 39.9617 138.353 40.5349V41.8997C138.353 42.7186 138.298 43.2645 138.216 43.2645C138.148 43.2645 137.915 43.1417 137.696 42.9916C137.491 42.8414 136.889 42.5685 136.369 42.3774C135.781 42.1727 134.796 41.9952 133.838 41.8997C132.866 41.8042 129.966 41.7632 126.244 41.7905C120.69 41.8315 120.183 41.8451 119.746 42.0908C119.486 42.2273 119.061 42.5275 118.815 42.7732C118.555 43.0052 118.227 43.4419 118.063 43.7422C117.775 44.2608 117.762 44.4655 117.762 47.5637C117.762 50.6345 117.775 50.8802 118.049 51.3851C118.213 51.6854 118.61 52.1631 118.938 52.4497C119.267 52.7363 119.841 53.0502 120.224 53.173C120.772 53.3232 121.962 53.3641 126.313 53.3641C129.282 53.3641 131.936 53.3095 132.196 53.2413C132.456 53.1594 132.976 52.8318 133.359 52.5043C133.824 52.0948 134.166 51.6445 134.412 51.0712C134.686 50.4571 134.782 50.0476 134.727 48.9285L127.134 48.8602V45.9941H131.17C133.386 45.9941 135.493 46.0487 135.849 46.1306C136.218 46.1989 136.725 46.4036 136.985 46.581C137.245 46.7448 137.587 47.1269 137.723 47.4272C137.942 47.8776 138.011 48.4508 138.093 50.7027C138.161 52.204 138.243 54.0602 138.353 56.2302L135.548 56.162V53.3368C135.548 51.1531 135.507 50.498 135.37 50.498C135.288 50.498 135.206 50.6618 135.206 50.8802C135.206 51.0849 135.11 51.5899 134.987 51.9993C134.864 52.4087 134.604 53.0229 134.385 53.3641C134.166 53.7053 133.687 54.2649 133.304 54.6334C132.921 54.9882 132.196 55.4796 130.759 56.162H125.013C119.349 56.162 119.253 56.162 118.446 55.8481C117.994 55.6706 117.351 55.3294 117.009 55.0838C116.667 54.8381 116.161 54.2922 115.887 53.8964C115.6 53.4869 115.272 52.8864 115.135 52.5452C114.943 52.0266 114.902 51.3032 114.848 48.1096C114.82 45.6802 114.848 43.9879 114.943 43.4692C115.025 43.0188 115.258 42.3091 115.463 41.8997C115.668 41.4903 116.079 40.9034 116.394 40.6031C116.695 40.2892 117.214 39.8798 117.556 39.6751Z" fill="#EAE9E8"></path><path d="M143.62 39.5659C144.072 39.3475 144.715 39.1155 145.057 39.0472C145.399 38.979 148.655 38.9381 152.308 38.9517C158.15 38.9654 159.026 39.0063 159.628 39.211C159.997 39.3339 160.64 39.6751 161.051 39.948C161.461 40.2346 162.022 40.8079 162.323 41.2173C162.611 41.6267 162.953 42.2818 163.089 42.6503C163.295 43.2372 163.322 43.9196 163.322 47.5637C163.322 51.2077 163.295 51.8901 163.089 52.477C162.953 52.8591 162.611 53.5006 162.323 53.91C162.022 54.3195 161.461 54.8927 161.051 55.1793C160.64 55.4523 159.997 55.7935 159.628 55.9163C159.04 56.121 158.109 56.162 152.582 56.2029C148.532 56.2302 145.891 56.1893 145.331 56.0937C144.838 56.0255 144.113 55.8071 143.716 55.6161C143.333 55.425 142.69 54.9882 142.307 54.6334C141.883 54.2376 141.445 53.6371 140.747 52.204V42.9233L141.117 42.1454C141.335 41.7086 141.787 41.0399 142.143 40.6577C142.526 40.2619 143.141 39.7979 143.62 39.5659Z" fill="#EAE9E8"></path><path d="M9.05996 53.3641V41.7632H15.9966C19.9233 41.7632 23.1522 41.8178 23.4258 41.8997C23.6858 41.9679 24.2057 42.2273 24.5888 42.4729C25.0676 42.8005 25.3686 43.128 26.0391 44.4246V50.7027L25.6423 51.4534C25.3686 51.9993 25.0676 52.3269 24.5888 52.6544C24.2057 52.9001 23.6858 53.1594 23.4258 53.2276C23.1522 53.3095 19.9233 53.3641 9.05996 53.3641Z" fill="#30A583"></path><path d="M94.5437 42.3364C94.8995 42.1454 95.3783 41.9406 95.5972 41.8861C95.8161 41.8315 98.4704 41.7905 101.48 41.7769C104.723 41.7769 107.158 41.8178 107.473 41.8997C107.747 41.9816 108.239 42.2409 108.554 42.4866C108.882 42.7322 109.293 43.2372 109.908 44.4246V50.7027L109.512 51.4534C109.238 51.9993 108.937 52.3269 108.458 52.6544C108.075 52.9001 107.528 53.173 107.227 53.2413C106.885 53.3368 104.572 53.3641 95.4604 53.2959L94.7216 52.8864C94.2975 52.6408 93.8323 52.245 93.6134 51.9311C93.4082 51.6308 93.1756 51.1668 93.0798 50.9075C92.984 50.6072 92.9293 49.3925 92.9293 47.5637C92.9293 45.339 92.9703 44.5611 93.1345 44.1243C93.244 43.7968 93.4629 43.3464 93.6271 43.1144C93.7776 42.8824 94.188 42.5275 94.5437 42.3364Z" fill="#30A583"></path><path d="M144.729 42.6094C145.016 42.3637 145.536 42.0771 145.878 41.9679C146.37 41.8178 147.602 41.7769 152.24 41.8042C157.849 41.8315 158 41.8451 158.533 42.1317C158.834 42.2955 159.272 42.6231 159.505 42.8824C159.751 43.128 160.052 43.5511 160.189 43.8104C160.422 44.2335 160.449 44.6293 160.449 47.5637C160.449 50.498 160.422 50.8938 160.189 51.3169C160.052 51.5762 159.751 51.9993 159.505 52.245C159.272 52.5043 158.834 52.8318 158.533 52.9956C158 53.2822 157.836 53.2959 152.308 53.3368C147.588 53.3641 146.521 53.3368 145.946 53.173C145.563 53.0502 145.016 52.7636 144.729 52.5179C144.441 52.2723 144.031 51.7673 143.839 51.3851C143.483 50.7027 143.483 50.6754 143.483 47.5637C143.483 44.4519 143.483 44.4246 143.839 43.7422C144.031 43.3737 144.441 42.8551 144.729 42.6094Z" fill="#30A583"></path></g></svg> 