<?xml version="1.0" encoding="utf-8"?>
<!-- Generator: Adobe Illustrator 25.2.0, SVG Export Plug-In . SVG Version: 6.00 Build 0)  -->
<svg version="1.1" id="Layer_1" xmlns="http://www.w3.org/2000/svg" xmlns:xlink="http://www.w3.org/1999/xlink" x="0px" y="0px"
	 viewBox="0 0 150 147" style="enable-background:new 0 0 150 147;" xml:space="preserve">
<style type="text/css">
	.st0{fill:#E8E8E8;}
</style>
<g>
	<path class="st0" d="M150,70.9v8.2c-0.3,2.4-0.5,4.7-0.8,7.1c-1.5,10.6-5.1,20.4-10.8,29.4c-7.1,11.2-16.4,20-28.1,26.1
		c-3.6,1.9-7.3,3.4-11.1,4.9c-3.3,1.3-5.6-0.5-5.6-4.1c0-6.4,0.1-12.9,0.1-19.3c0-3.6-0.4-7.1-2-10.4c-0.7-1.5-1.8-2.8-2.7-4.2
		c2.6-0.5,5.3-0.8,8-1.4c7.4-1.7,14.1-4.9,18.9-11.1c3.5-4.5,5.3-9.7,6.2-15.3c0.7-4.6,1-9.2,0.4-13.9c-0.7-5.5-2.8-10.3-6.4-14.5
		c-0.8-0.9-0.8-1.6-0.5-2.7c1.8-6,1.1-12-1.1-17.8c-0.2-0.4-1.1-0.8-1.6-0.8c-2.4,0.4-4.9,0.6-7.1,1.5c-3.7,1.6-7.3,3.8-10.9,5.6
		c-0.7,0.4-1.7,0.6-2.4,0.4c-11.7-2.9-23.4-2.8-35.1,0c-0.7,0.2-1.7,0-2.3-0.4c-4.3-2.7-8.7-5.3-13.7-6.5c-1.5-0.4-3.2-0.5-4.8-0.6
		c-0.7-0.1-1.2,0.3-1.5,1.1c-2,6-2.6,12-0.7,18.1c0.1,0.4,0,1.2-0.3,1.5c-6.4,7.4-7.8,16-6.8,25.4c0.5,4.6,1.4,9.1,3.4,13.4
		c3.3,7,8.6,11.7,15.7,14.5c4.2,1.7,8.6,2.6,13,3.2c0.5,0.1,0.9,0.2,1.3,0.2c-1,1.8-2.1,3.5-3,5.3c-0.5,0.9-0.8,1.9-0.9,2.9
		c-0.2,1.5-1,2.2-2.4,2.7c-4.7,1.4-9.3,1.9-13.7-0.7c-2.4-1.4-4.3-3.4-5.7-5.7c-1.7-2.7-3.7-5.1-6.5-6.6c-2.2-1.2-4.4-2.1-7-1.6
		c-0.6,0.1-1.5,0.6-1.7,1.1c-0.2,0.4,0.4,1.2,0.8,1.7c0.4,0.5,0.9,0.9,1.4,1.2c4.3,2.7,6.9,6.7,8.7,11.3c3,7.2,8.7,10.6,16.2,11
		c2.9,0.2,5.9-0.3,9-0.4c0,0,0.1,0.3,0.1,0.5c0.1,3.8,0.1,7.5,0.1,11.3c0,3.7-2.4,5.3-5.9,4c-18.7-6.7-32.8-18.8-42-36.4
		c-6.6-12.5-9.4-25.9-8.3-40c2.1-25.3,13.8-44.9,35.1-58.6C50.5,1.9,67.2-1.9,84.9,0.9c30.8,4.8,51.1,22.4,61.5,51.7
		c1.9,5.4,2.9,11.1,3.3,16.9C149.8,70,149.9,70.4,150,70.9z"/>
</g>
</svg>
