<svg viewBox="0 0 24 25" fill="none" xmlns="http://www.w3.org/2000/svg">
<g id="logo-center" transform="translate(96.59212500000001 0)">
      <image xlink:href="" id="icon_container" x="0" y="0" style="display: none;"></image>
      <g id="slogan" style="font-style:normal;font-weight:800;font-size:32px;line-height:1;font-family:'Montserrat ExtraBold Alt1';font-variant-ligatures:none;text-align:center;text-anchor:middle" transform="translate(0 0)"></g>
      <g id="title" style="font-style:normal;font-weight:800;font-size:72px;line-height:1;font-family:'Montserrat ExtraBold Alt1';font-variant-ligatures:none;text-align:center;text-anchor:middle" transform="translate(0 0)">
      <text x="0" y="0" fill="#000">Seu Título Aqui</text>
        <path id="path683625" style="font-style:normal;font-weight:800;font-size:72px;line-height:1;font-family:'Montserrat ExtraBold Alt1';font-variant-ligatures:none;text-align:center;text-anchor:middle" d="m 406.871,-38.52 c -2.376,-3.744 -5.688,-6.696 -9.936,-8.784 -4.32,-2.016 -9.216,-3.096 -14.688,-3.096 h -23.832 v 11.376 h 23.256 c 4.32,0 7.776,1.224 10.368,3.672 2.592,2.52 3.96,5.904 3.96,10.152 0,4.32 -1.368,7.704 -3.96,10.152 -2.592,2.448 -6.048,3.672 -10.368,3.672 h -9 V -24.768 H 358.415 V 0 h 23.832 c 5.472,0 10.368,-1.008 14.688,-3.096 4.248,-2.016 7.56,-4.968 9.936,-8.784 2.304,-3.744 3.528,-8.208 3.528,-13.32 0,-5.04 -1.224,-9.504 -3.528,-13.32 z" stroke-width="0" stroke-linejoin="miter" stroke-miterlimit="2" fill="#42332c" stroke="#42332c" transform="translate(0 341.39200000000005) translate(50 -16.192000000000007) scale(2.3333333333333335) translate(-358.415 50.4)"></path>
        <path id="path683627" style="font-style:normal;font-weight:800;font-size:72px;line-height:1;font-family:'Montserrat ExtraBold Alt1';font-variant-ligatures:none;text-align:center;text-anchor:middle" d="m 456.92338,-16.056 c 0.14399,-2.16 0.21599,-3.24 0.21599,-3.384 0,-4.176 -0.936,-7.776 -2.808,-10.8 -1.87199,-3.024 -4.32,-5.4 -7.488,-6.984 -3.168,-1.584 -6.696,-2.448 -10.584,-2.448 -4.104,0 -7.77599,0.864 -11.01599,2.592 -3.31201,1.728 -5.832,4.176 -7.70401,7.2 -1.872,3.024 -2.73599,6.48 -2.73599,10.296 0,3.888 0.93599,7.416 2.80799,10.44 1.87201,3.096 4.60801,5.472 8.064,7.2 3.456,1.728 7.41601,2.592 12.02401,2.592 7.272,0 12.81599,-2.088 16.63199,-6.336 l -7.2,-7.488 c -1.44,1.224 -2.808,2.088 -4.176,2.592 -1.368,0.576 -2.952,0.792 -4.824,0.792 -2.52,0 -4.608,-0.504 -6.264,-1.584 -1.656,-1.08 -2.736,-2.664 -3.31199,-4.68 z m -25.92001,-12.096 c 1.44,-1.152 3.168,-1.8 5.328,-1.8 2.088,0 3.816,0.648 5.256,1.8 1.44,1.224 2.304,2.88 2.736,4.896 h -15.98399 c 0.35999,-2.016 1.22399,-3.672 2.66399,-4.896 z" stroke-width="0" stroke-linejoin="miter" stroke-miterlimit="2" fill="#42332c" stroke="#42332c" transform="translate(0 341.39200000000005) translate(181.57288666666668 8.840000000000003) scale(2.3333333333333335) translate(-414.80338 39.672)"></path>
        <path id="path683629" style="font-style:normal;font-weight:800;font-size:72px;line-height:1;font-family:'Montserrat ExtraBold Alt1';font-variant-ligatures:none;text-align:center;text-anchor:middle" d="m 503.92588,-39.024 h -13.03201 l -9.864,23.832 -9.36,-23.832 H 457.62988 L 473.68587,0 h 14.112 z" stroke-width="0" stroke-linejoin="miter" stroke-miterlimit="2" fill="#42332c" stroke="#42332c" transform="translate(0 341.39200000000005) translate(281.50138666666675 10.35199999999999) scale(2.3333333333333335) translate(-457.62988 39.024)"></path>
        <path id="path683631" style="font-style:normal;font-weight:800;font-size:72px;line-height:1;font-family:'Montserrat ExtraBold Alt1';font-variant-ligatures:none;text-align:center;text-anchor:middle" d="m 518.77138,-2.304 c 4.17599,2.232 8.928,3.312 14.25599,3.312 4.608,0 8.712,-0.792 12.45601,-2.448 3.672,-1.584 6.768,-3.96 9.216,-7.056 l -9.072,-8.208 c -3.312,3.96 -7.27201,5.904 -11.88,5.904 -2.736,0 -5.18401,-0.576 -7.34401,-1.8 -2.15999,-1.152 -3.816,-2.88 -4.96799,-5.04 -1.15201,-2.16 -1.72801,-4.68 -1.72801,-7.56 0,-2.808 0.576,-5.328 1.72801,-7.488 1.15199,-2.16 2.808,-3.888 4.96799,-5.112 2.16,-1.152 4.60801,-1.8 7.34401,-1.8 4.60799,0 8.568,2.016 11.88,5.904 l 9.072,-8.208 c -2.448,-3.024 -5.544,-5.4 -9.216,-7.056 -3.74401,-1.584 -7.84801,-2.448 -12.45601,-2.448 -5.32799,0 -10.08,1.152 -14.25599,3.384 -4.17601,2.232 -7.48801,5.328 -9.86401,9.288 -2.44799,4.032 -3.6,8.496 -3.6,13.536 0,5.04 1.15201,9.576 3.6,13.536 2.376,4.032 5.688,7.128 9.86401,9.36 z" stroke-width="0" stroke-linejoin="miter" stroke-miterlimit="2" fill="#8a7d6c" stroke="#8a7d6c" transform="translate(0 341.39200000000005) translate(392.74886333333336 -18.54400000000001) scale(2.3333333333333335) translate(-505.30737 51.408)"></path>
        <path id="path683633" style="font-style:normal;font-weight:800;font-size:72px;line-height:1;font-family:'Montserrat ExtraBold Alt1';font-variant-ligatures:none;text-align:center;text-anchor:middle" d="m 561.05562,0 h 13.96801 V -8.496 L 561.05562,-26.28 Z m 33.984,-50.4 v 9.144 l 13.968,16.848 V -50.4 Z m 0,26.856 -22.248,-26.856 h -11.736 v 6.696 L 575.02363,-26.856 597.27162,0 h 11.736 v -5.832 l -13.968,-17.784 z" stroke-width="0" stroke-linejoin="miter" stroke-miterlimit="2" fill="#8a7d6c" stroke="#8a7d6c" transform="translate(0 341.39200000000005) translate(522.8281133333332 -16.192000000000007) scale(2.3333333333333335) translate(-561.05562 50.4)"></path>
        <path id="path683635" style="font-style:normal;font-weight:800;font-size:72px;line-height:1;font-family:'Montserrat ExtraBold Alt1';font-variant-ligatures:none;text-align:center;text-anchor:middle" d="m 649.30175,-50.4 h -14.04 L 613.01375,0 h 14.544 l 3.96,-9.792 4.176,-10.512 6.48,-16.128 6.48,16.128 4.176,10.512 3.96,9.792 h 14.832 z" stroke-width="0" stroke-linejoin="miter" stroke-miterlimit="2" fill="#8a7d6c" stroke="#8a7d6c" transform="translate(0 341.39200000000005) translate(644.0637499999999 -16.192000000000007) scale(2.3333333333333335) translate(-613.01375 50.4)"></path>
      </g>
      <image xlink:href="" id="icon" x="0" y="0" style="display: none;"></image>
    </g>
</svg>